<mxfile host="Electron" agent="Mozilla/5.0 (Windows NT 10.0; Win64; x64) AppleWebKit/537.36 (KHTML, like Gecko) draw.io/26.0.16 Chrome/132.0.6834.196 Electron/34.2.0 Safari/537.36" version="26.0.16">
  <diagram name="Page-1" id="JjwUheqJY2ZCm73Q5_2k">
    <mxGraphModel dx="1235" dy="1880" grid="1" gridSize="10" guides="1" tooltips="1" connect="1" arrows="1" fold="1" page="1" pageScale="1" pageWidth="850" pageHeight="1100" math="0" shadow="0">
      <root>
        <mxCell id="0" />
        <mxCell id="1" parent="0" />
        <mxCell id="Cq0JHI5AIDRnuN9baVrd-33" style="edgeStyle=orthogonalEdgeStyle;rounded=0;orthogonalLoop=1;jettySize=auto;html=1;entryX=1;entryY=0.5;entryDx=0;entryDy=0;fontSize=16;" parent="1" source="SMrcyNEO39rnpp6A6giR-1" target="SMrcyNEO39rnpp6A6giR-2" edge="1">
          <mxGeometry relative="1" as="geometry">
            <Array as="points">
              <mxPoint x="555.5" y="-1000" />
              <mxPoint x="555.5" y="-1000" />
            </Array>
          </mxGeometry>
        </mxCell>
        <mxCell id="SMrcyNEO39rnpp6A6giR-1" value="Profile from domain expert" style="rounded=1;whiteSpace=wrap;html=1;fillColor=#ffe6cc;strokeColor=#d79b00;fontSize=16;strokeWidth=4;" parent="1" vertex="1">
          <mxGeometry x="565.5" y="-1030" width="200" height="60" as="geometry" />
        </mxCell>
        <mxCell id="Cq0JHI5AIDRnuN9baVrd-112" style="edgeStyle=orthogonalEdgeStyle;rounded=0;orthogonalLoop=1;jettySize=auto;html=1;exitX=0.5;exitY=1;exitDx=0;exitDy=0;entryX=0.5;entryY=0;entryDx=0;entryDy=0;fillColor=#dae8fc;strokeColor=#97B295;fontSize=16;" parent="1" source="SMrcyNEO39rnpp6A6giR-2" target="Cq0JHI5AIDRnuN9baVrd-1" edge="1">
          <mxGeometry relative="1" as="geometry" />
        </mxCell>
        <mxCell id="SMrcyNEO39rnpp6A6giR-2" value="&lt;div&gt;Apply matrix profile&lt;/div&gt;" style="rounded=1;whiteSpace=wrap;html=1;fillColor=#D9FFD5;strokeColor=#97B295;fontSize=16;" parent="1" vertex="1">
          <mxGeometry x="249.5" y="-1030" width="295" height="60" as="geometry" />
        </mxCell>
        <mxCell id="Cq0JHI5AIDRnuN9baVrd-34" style="edgeStyle=orthogonalEdgeStyle;rounded=0;orthogonalLoop=1;jettySize=auto;html=1;entryX=0.5;entryY=0;entryDx=0;entryDy=0;fillColor=#d5e8d4;strokeColor=#BEAD9E;fontSize=16;" parent="1" source="SMrcyNEO39rnpp6A6giR-4" edge="1">
          <mxGeometry relative="1" as="geometry">
            <mxPoint x="713" y="-870" as="targetPoint" />
          </mxGeometry>
        </mxCell>
        <mxCell id="SMrcyNEO39rnpp6A6giR-4" value="&lt;div&gt;Embed watermark in n2&lt;/div&gt;" style="rounded=1;whiteSpace=wrap;html=1;fillColor=#E1DBD7;strokeColor=#918579;fontSize=16;" parent="1" vertex="1">
          <mxGeometry x="565.5" y="-950" width="295" height="60" as="geometry" />
        </mxCell>
        <mxCell id="Zp84ywPQOoTxNbxMG8Mf-4" style="edgeStyle=orthogonalEdgeStyle;rounded=0;orthogonalLoop=1;jettySize=auto;html=1;exitX=0.5;exitY=1;exitDx=0;exitDy=0;entryX=0.5;entryY=0;entryDx=0;entryDy=0;fillColor=#dae8fc;strokeColor=#97B295;fontSize=16;" parent="1" source="Cq0JHI5AIDRnuN9baVrd-1" target="Cq0JHI5AIDRnuN9baVrd-3" edge="1">
          <mxGeometry relative="1" as="geometry" />
        </mxCell>
        <mxCell id="HvZ12z2A3zEfFmUan3BK-6" style="edgeStyle=orthogonalEdgeStyle;rounded=0;orthogonalLoop=1;jettySize=auto;html=1;exitX=1;exitY=0.5;exitDx=0;exitDy=0;entryX=0;entryY=0.5;entryDx=0;entryDy=0;" parent="1" source="Cq0JHI5AIDRnuN9baVrd-1" target="SMrcyNEO39rnpp6A6giR-4" edge="1">
          <mxGeometry relative="1" as="geometry" />
        </mxCell>
        <mxCell id="Cq0JHI5AIDRnuN9baVrd-1" value="&lt;div&gt;Apply spread spectrum + wavelet transform&lt;/div&gt;" style="rounded=1;whiteSpace=wrap;html=1;fillColor=#D9FFD5;strokeColor=#97B295;fontSize=16;" parent="1" vertex="1">
          <mxGeometry x="249.5" y="-950" width="295" height="60" as="geometry" />
        </mxCell>
        <mxCell id="Cq0JHI5AIDRnuN9baVrd-3" value="Apply Laplace" style="rounded=1;whiteSpace=wrap;html=1;fillColor=#D9FFD5;strokeColor=#97B295;fontSize=16;" parent="1" vertex="1">
          <mxGeometry x="249.5" y="-870" width="295" height="60" as="geometry" />
        </mxCell>
        <mxCell id="HvZ12z2A3zEfFmUan3BK-3" value="&lt;font&gt;Step not in paper&lt;/font&gt;" style="rounded=1;whiteSpace=wrap;html=1;fillColor=none;strokeColor=#000000;fontSize=24;dashed=1;strokeWidth=5;" parent="1" vertex="1">
          <mxGeometry x="60" y="-570" width="195" height="60" as="geometry" />
        </mxCell>
        <mxCell id="HvZ12z2A3zEfFmUan3BK-4" value="&lt;font&gt;Arbitrary input or hyperparameter&lt;/font&gt;" style="rounded=1;whiteSpace=wrap;html=1;fillColor=#ffe6cc;strokeColor=#d79b00;fontSize=24;strokeWidth=5;" parent="1" vertex="1">
          <mxGeometry x="60" y="-490" width="195" height="60" as="geometry" />
        </mxCell>
        <mxCell id="HvZ12z2A3zEfFmUan3BK-5" value="&lt;span&gt;&lt;b&gt;Relevant output&lt;/b&gt;&lt;/span&gt;" style="rounded=1;whiteSpace=wrap;html=1;fillColor=none;strokeColor=#000000;fontSize=24;strokeWidth=5;" parent="1" vertex="1">
          <mxGeometry x="60" y="-410" width="195" height="60" as="geometry" />
        </mxCell>
        <mxCell id="CN0QuSkKHxtVn4nskEgD-17" value="&lt;font&gt;Fragile watermark embedding&lt;/font&gt;" style="text;html=1;align=center;verticalAlign=middle;whiteSpace=wrap;rounded=0;fontStyle=1;fontSize=21;" parent="1" vertex="1">
          <mxGeometry x="960" y="-1080" width="70" height="40" as="geometry" />
        </mxCell>
        <mxCell id="CN0QuSkKHxtVn4nskEgD-19" value="" style="endArrow=none;html=1;rounded=0;strokeWidth=2;" parent="1" edge="1">
          <mxGeometry width="50" height="50" relative="1" as="geometry">
            <mxPoint x="930" y="-180" as="sourcePoint" />
            <mxPoint x="930" y="-1090" as="targetPoint" />
          </mxGeometry>
        </mxCell>
        <mxCell id="CN0QuSkKHxtVn4nskEgD-20" value="&lt;div&gt;Find Barker code at start of each section&lt;/div&gt;" style="rounded=1;whiteSpace=wrap;html=1;fillColor=#D9FCFF;strokeColor=#85D3E3;fontSize=16;" parent="1" vertex="1">
          <mxGeometry x="970" y="-1000" width="295" height="60" as="geometry" />
        </mxCell>
        <mxCell id="CN0QuSkKHxtVn4nskEgD-35" value="&lt;font&gt;Robust watermark embedding&lt;/font&gt;" style="text;html=1;align=center;verticalAlign=middle;whiteSpace=wrap;rounded=0;fontStyle=1;fontSize=21;" parent="1" vertex="1">
          <mxGeometry x="800" y="-1080" width="125.5" height="40" as="geometry" />
        </mxCell>
        <mxCell id="Hqzz6xvAw3qCz6wJWD0g-3" value="" style="group;movable=1;resizable=1;rotatable=1;deletable=1;editable=1;locked=0;connectable=1;aspect=fixed;" vertex="1" connectable="0" parent="1">
          <mxGeometry x="110" y="-1060" width="166.67000000000002" height="120" as="geometry" />
        </mxCell>
        <mxCell id="Hqzz6xvAw3qCz6wJWD0g-1" value="" style="shape=image;verticalLabelPosition=bottom;labelBackgroundColor=default;verticalAlign=top;aspect=fixed;imageAspect=0;image=data:image/jpeg,/9j/4AAQSkZJRgABAAEAYABgAAD//gAfTEVBRCBUZWNobm9sb2dpZXMgSW5jLiBWMS4wMQD/2wBDAAICAgICAgICAgICAgICAgICAgICAgICAgICAgICAgICAgICAgICAgICAgICAgICAgICAgICAgICAgICAgICAgL/xADSAAABBQEBAQEBAQAAAAAAAAAAAQIDBAUGBwgJCgsQAAIBAwMCBAMFBQQEAAABfQECAwAEEQUSITFBBhNRYQcicRQygZGhCCNCscEVUtHwJDNicoIJChYXGBkaJSYnKCkqNDU2Nzg5OkNERUZHSElKU1RVVldYWVpjZGVmZ2hpanN0dXZ3eHl6g4SFhoeIiYqSk5SVlpeYmZqio6Slpqeoqaqys7S1tre4ubrCw8TFxsfIycrS09TV1tfY2drh4uPk5ebn6Onq8fLz9PX29/j5+v/AAAsIANsBJgEBEQD/2gAIAQEAAD8A/fyiiiiiiiiiiiiiiiiiiiiiiiiiiiiivm74/wDjt/h5r37OerSXXjCLRL344arpPiTTPBWgeMvF2q69pUv7PXx7v7XTLjwf4D0rXPEPiXT7fxFp+ha5NZwaLqVvp9xo9r4iuo7ePRTqFp9AaRqdtrOlaZrFlHqENpqun2Wp2sOraTqvh/VYba/t47qCPUtC12y03W9E1BIpVS80nWNPsNV065ElnqFna3kM0KaNFFFFFFFFFFFFFFFFFFFFFFFFFFFFc8/ivwrBoWr+KH8S+H4fDHh7/hI/7e8RPrOnR6Fof/CIXmo6f4t/tfV2uRp+mDwvqGkatY+IvtlxD/Yl5peo2up/ZZrK6ji8/wBR+MWhad8cPDnwPaHbq2t/D/V/G11qtxJeWNnp15/ayWfgrwpayXGlrpOs+IPHOk+Hvi94lsdKsNc/t7T9B+D/AIo1abQ7jSfO1LT/AGGiiivl/wDaM8S6d4O8T/su+ItWtvEF1p+m/H/WvPt/C3hPxV4311/tf7Mv7R1hF9g8LeCtG8QeJ9T2T3Ub3X9maRd/YrNbjUrz7Pp9rdXUP0fpGp22s6VpmsWUeoQ2mq6fZanaw6tpOq+H9Vhtr+3juoI9S0LXbLTdb0TUEilVLzSdY0+w1XTrkSWeoWdreQzQpo0UUUUUUUUUUUUUUUUUUUUUUUUVx3xC8a6V8NPAPjj4ja7b6hdaJ8P/AAf4m8a6xa6TFbz6rc6V4W0W913ULfTILy7sLObUJrSwmis4rq+s7eS4aJZ7q3jZpk6DSNW0rXtK0zXdC1PT9Z0TWtPs9W0bWNJvLbUdK1XStRto7zT9T0zULOSa0vtPv7SaG7s7y0mltrq2ljmhkkjdWby/47eKNd8I/DPVLjwtff2N4m8R+IPAHw08OeIvstnqH/CIa78XfiF4W+FWkeN/7I1G3udP17/hCNQ8ZW/i3/hG79YLPxN/Y39g3V/psOoyahbfKOp/Bu28Oa1H+xx4f0fUNL+AHxT1DSfGn9n6B4p1Xw/ceHfgl4J8A2Xhv4s/DbQLiDXTrFrp+rfFjQfg3P8AEvWJbz+3PifpX7V/xL+w6Y3iDQ/HHxKtOO8Gjx1deCdM/aV+KH+l/En4cfGD4B+Gta1+5/se10Kz8K+APCFl+z7+0pc+KLHw19j0bTfD/wAJfiN8af21PFlx4si/snTbS80Ww8WSazrvwV0Lw3Y3n6X6Zq2lazbSXmjanp+q2cGoatpM11pl5bX1tDqmgare6FrumST2sksUeoaNrenaho+rWbuLjTtUsLzT7yOG7tp4k0aKK+X/ANozxX4V8CeJ/wBl3xR408S+H/B3hjS/j/rX9peIvFGs6d4d0LTvt37Mv7RunWf27V9WubPTrP7ZqF3a2Nr59xH9ovLq3tYt000cb/R+katpWvaVpmu6Fqen6zomtafZ6to2saTeW2o6VqulajbR3mn6npmoWck1pfaff2k0N3Z3lpNLbXVtLHNDJJG6s2jRRRRRRRRRRRRRRRRRRRRRRRRRXz/+0QPt3hz4ceEbP974g8W/tAfAT/hHtP8A9V/aH/Cu/in4Z+NfjH/Spdllaf2P8Mvhf468Tf6bc239of2H/Y+l/bvEGp6PpWoHwm/4t74q8X/Au5/0fSNH8zx/8HN/7qCb4WeJdRl/tTwVpXmfYraT/hS/jaa+8L23hzwvpEXh34c/BvxL+z1olxeXGraxNuPiH/xPPjt+zp4SH+h/8I5/wt345i//ANd9r/4QvwdZfBT/AIRb7J+5+z/2n/w0p/wk39ti5n+x/wDCF/2P/ZF1/wAJH/a2hfQFZ2raTpWvaVqeha5pmn6zomtafe6TrGjatZ2+oaXqulajbSWeoaZqen3kc1nfaff2k01reWd1DLbXVvLJDNHJG7KxpOkaV4f0rTNC0HTNP0TRNE0+y0nRtG0myttN0vSdK062js9P0zTNPs44bOw0+xtIYbWzs7SGK3tbaKOGGNI1VRo0UV8v/tGeK/CvgTxP+y74o8aeJfD/AIO8MaX8f9a/tLxF4o1nTvDuhad9u/Zl/aN06z+3avq1zZ6dZ/bNQu7WxtfPuI/tF5dW9rFummjjfv8Awt+0J8AvG+u2PhbwV8cPg/4u8Tap9q/szw54W+JfgvxBruofYrO41G9+w6RpOtXeoXf2XT7S7v7r7PbyfZ7O2uLqbbDDJIvsNePfHf4s/wDCkfhZ4w+JEfhDxB44ufDHh/xBrdr4b8Px/Z/tf/CPeHdY8UX82t6/cRPpPhHw/ZaRoeo3mpa/q7Hd5MOieHdN8TeNta8L+EPEJ8QviF4p0DxV4S+H/wAP/CXh/wAVeNvFnh/xn4xgg8Y+M9R8A+FbLwr4C1HwPomvyy6/ongf4jatL4gm1b4j+FE0fR08Kpp15pq+Ib288QaXdaXp2na9z/iX9oTwroP7ONt+0bBa/Z/D+t/D/wAJ+NPCmj+LNV07wj9s1H4iWujJ8P8Awz4l8RtJq3h/wZ/bfiDxJoHh/WvFGpXdz4W8JfbrnXNb1SPw/pt5qKdh8IfHGq/EbwZB4u1D/hWElpqWoX8ehal8IfijcfF3wbq+lWMi2M15B4vn8C+AIm1C31u31jSr/TLPSr+3sX01N+rSXc11Yaf6jRRRRRRRRRRRRRRRRRRRRXz/APEP/iefHb9nTwkP9D/4Rz/hbvxzF/8A677X/wAIX4Osvgp/wi32T9z9n/tP/hpT/hJv7bFzP9j/AOEL/sf+yLr/AISP+1tC7/xz8MfCHxE/suTxFD4gtdQ0T7cmla74O8beNvhx4qsrPVPsjatpEXi34eeIfC3ic+H9Yn03SLzWPDr6s+g6tqWheHtS1DT7rUPD+i3Vjz/w8+C+g/DXxV4t8U6T4m8f67N4p8P+DPC0dj458W3njb/hHdC8E6j431vTrHS/EniKO+8e6r9t134i+K9Vvrnxt4v8W3lv9ts9G0O40Xwzo+j6HZew0UUUUV4B8ZP+Si/snf8AZwHiP/1ln9pavf6K8u+N3gnVfiT8F/i98OdCuNPtNb8e/DDx/wCCtGutWlubfSrbVfFXhTVtC0+41OeztL+7h0+G7v4ZbyW1sby5jt1laG1uJFWF+f8AiN4S8ff8J94F+KHw507wf4i1vwn4P+I3gG68KeNfFWteBNKuNK+IutfDHxFP4hg8VaF4J+I12uoaHd/C2x02Hw9J4TW21a38S3WpP4i0uTw/Fpuv0PD3wz8U+CPg14L+Euj2nw/8Y/8ACq/AHwb0jwtq/jeDUY9O8XeKvhhPp73Dat4ctbDU/wDhAd//AAifh3U/BvjfTtY8e6j4R8VasfEUng3Wf+EEsdP8bb/wk8G+KvDcvxK8T+NIvD+neJvin8QLfx1qXhzwtrGo+JdC8L/2Z8OPh78MbPS7HxTq3h3whqHiP7bp/wAObTxJdX1x4Q8N/YbzXrjw/FaahDo0fiDWvYaKKKKKKKKKKKKKKKKKKKK+f/8AkP8A7U3/AD5/8Kk+AH/Xb+3/APhoj4i/9sf7K/4RD/hl/wD6iX/CQf8ACcf8wP8A4Rn/AIqD6Aooooooor5f/aM8J+FfHHif9lzwt408M+H/ABd4Y1T4/wCtf2l4c8U6Np2v6FqP2L9mX9o7UbP7dpGrW13p939k1C0tL618+3k8i8tre6i2zQxyL9H6TpGleH9K0zQtB0zT9E0TRNPstJ0bRtJsrbTdL0nStOto7PT9M0zT7OOGzsNPsbSGG1s7O0hit7W2ijhhjSNVUaNFFFFFFFFFFFFFFFFFFFFFFFc94s8U6F4G8K+JfGvii+/srwx4P8P6z4p8R6n9lvL3+zdC8P6dc6tq999i063utQu/sen2lxcfZrC0ury48vyrW3mndI28f8C/En4j6h8U9U8FfEnwR4f+Hun678P7Hxz8KNLsfEsvi3xTq9nofiK80n4nReOrzT7C08MeGfEHhCDxb8G4Lzwxot14l0H+0vFGqTeE/iV8RtPtdUl8Lnw7/wCJ78dv2ivFg/0T/hHP+FRfAz+zv9d9s/4QvwdffGv/AISn7V+5+zf2l/w0p/wjX9ifZpvsf/CF/wBs/wBsXX/CR/2VoX0DRRRRRRRXy/8AtGeE/CvjjxP+y54W8aeGfD/i7wxqnx/1r+0vDninRtO1/QtR+xfsy/tHajZ/btI1a2u9Pu/smoWlpfWvn28nkXltb3UW2aGORfo/SdI0rw/pWmaFoOmafomiaJp9lpOjaNpNlbabpek6Vp1tHZ6fpmmafZxw2dhp9jaQw2tnZ2kMVva20UcMMaRqqjRoooooooooooooooooooooor4v8feNNUs/20fghoWnW+nw2eneD9W8Fa7JeRXN3c6rpXx68OfF74jQ3GkvBd2EWh6h4S1v9iHR7WSW8h8Q2/iLS/iFqcK2ug3mgWt9qnp/iX/i73jq28C2Hy+Cfg78QPCfiL4p3Vz+6/t/x3oGj6P8TPhx8O9Ggj8jVov+Eb1fWfhp8ZvE3i6C8sdH/wCJT4T+HdrD44tvFfxQsfh+fEwf2F8av2a/FNp81/r/AIg+J3wUvIbj5rOHwr4w+GOt/GPU7+1ji8mZPEEHif8AZ28FWNjdS3E2mx6Dqnii1uNJutQvdJ1TRV+AX/E1/wCF0+Pv+Pb/AIWB+0B8R/8AiU/63+yP+FP/ANjfs0f8f/7r7f8A8JD/AMKO/wCE1/487L+yf+Eo/wCEc/4mn9i/29q/0BRRRRRRRXy/+0Z4T8K+OPE/7Lnhbxp4Z8P+LvDGqfH/AFr+0vDninRtO1/QtR+xfsy/tHajZ/btI1a2u9Pu/smoWlpfWvn28nkXltb3UW2aGORfo/SdI0rw/pWmaFoOmafomiaJp9lpOjaNpNlbabpek6Vp1tHZ6fpmmafZxw2dhp9jaQw2tnZ2kMVva20UcMMaRqqjRooooooooooooooooooooor5P/bP+J+q/CP4JXPivw0uoXfivTvF/gvxJonh/TNaufDNx4s0r4W65b/G34neGJPEcME9tpGn6l8F/hh8Sm1Y6hHNb6vpdveeHbfT9d1TWtO8O6v5f8Sv9J139o34v3H+gah8CvjB+zDo0+s2P7iXwz8Gvg3Z+Afjp8T/ABZbsvm6y/iCf4c/tEfH3w14otvD832jxd8OGtvAel+GdQ1DVdah8WfR/wCzdpOq6V8EvAN34h0zUNC8V+M9P1D4q+N9A1OyudMufDvj74xa5qnxW8feHY9Lvo4tS0jT9A8ZeMtc0fSdJ1d7rWtL0qys9P1rUNU1W2vNSuuw+J3w20H4r+EJfBPiS88QadpE/iDwT4jkufC2t3nhrXUvPAnjbw9480lLHxBpjRato3n6v4bsbe61HRLvTdetbOW4m0PWNH1ZbPVbPoPC3hbQvBWhWPhrw1Y/2bpGnfanhie5vL+7urzULy41PVtX1fVtSuLzVtd8Qa9q95fa34i8R63e6hr3iLXtQ1HXNc1DUNW1C8vLjoaKKKKKKK+X/wBozwzp3i7xP+y54c1W48QWen6h+0BrX2i48LeLPFXgbXY/sn7Mv7R19F9h8U+CtZ8PeJtL3z20aXX9mavafbrNrjT7z7Rp95dWs/0fpOmW2iaVpmjWcmoS2mk6fZaZay6tq2q69qsttYW0drBJqWu67e6jres6g8USveatrGoX+qalcmW81C8uryaaZ9GuO8f+PvBvwr8G+IfiB8QPEGneFPBvhXT5NT1zXNSeRbazthJHBDHHDBHNd32oX93Nb6fpOk6dbXeq6zqt3Z6TpNnealeWtrPn+Ofib4Q+HH9lxeIZfEFxqGtfbn0rQPB3gnxt8RfFV5Z6X9kXVtXi8JfDzw94p8Tjw/o8+paRZ6x4jfSU0HSdR13w9puoajbah4g0W2v9DUvH3g3SPBsfxBn8Qafc+DbnT9J1LStc0V5PEFt4gtvEMllB4Zj8Kw6BHqV34r1DxZd6lpeneD9J8NW2q6r4s1XVdK0nw5Z6pqOqWNrcHgrx34Y8f6Vcat4YutQaKx1CXSdU0zXPD/iDwf4l0HVYra0v/wCzPEng/wAX6VoXivwzqFxpeo6XrljZ69oum3Go+HtY0TxDYRXOia1peoXnY0UUUUUUUUUUUUUUUV8/fFQf2n8Xf2YtAsMTatovxA+IHxS1G0/1X2bwJ4a+CnxE+Gmt67583lW032Pxt8aPhpov9mW80usXP/CS/wBpWun3Gk6P4g1DSuQ/ZZ+A1z8LPgNL8LfiVZaf4q1S+1DxV4Z8Y3WrafpUulfEHwb4YH/Cn/htqGp+GLe/1zQLDT9b+APgb4aabeeG/Nnka3hkHiwX3iu78SX999YUUUUUUUUUUV8v/tGeGdO8XeJ/2XPDmq3HiCz0/UP2gNa+0XHhbxZ4q8Da7H9k/Zl/aOvovsPinwVrPh7xNpe+e2jS6/szV7T7dZtcafefaNPvLq1n7/wt8DvBfg7XbHxFpGtfF+61DTvtX2e38UftCfHzxvoT/a7O5sZft3hbxp8S9f8ADOp7ILqR7X+0tIu/sN4tvqNn9n1C1tbqH2Gvn79qfwn/AMJd+zt8bdOsfDX/AAk/iaL4QfFz/hCbC10b+2tdj8Vax8LvGXha1/4Ra1itrnUE8Qapp/iDU/Dtv/ZKDUb6z1u/0iPzIdSubefP+KF8/gv40fCz4napofjDUvBukfDD41eBNSvfBXgbxl8RtVsfE3jbxX8BfEHhq1uPC3w80LxP4rj0+/0r4deLppdf/sT/AIR3TbjTrXTdW1Sx1LXNBtNU8wTwn4q0D9k/4KfDS/8ADPiA+Nvg/wCH/wBirxL470TTdG1HWvsenfC/4k/DTX/HttoGo6LbX+k+OfEHh/Sfhr4uu5vCfgW/8SeKrz7PokGm6Le3Pi/whDr3r/wLjvL/AFb47eOP7I8QaP4e+JPxg07xT4OHinw5rvg3XdQ0LSfgf8F/h5fX194R8Wadovi3w7jxb4G8T2FtbeJNE0i81CzsbfXtPt7rw/q2j6pqH0DRRRRRXHRePvBsnj68+FqeIdPX4hWHg/TPH83hSR5INUfwbq2tat4dtfENlHNHHFqOnw63ot5pupPp8ly+i3E2krrEdiuv6G2pdjRRRRRRRRRXz/qP/E1/am8G/wBnfv8A/hX3wA+Jf/CXf8sv7I/4XB8RfhP/AMK6/wBf5f27/hIf+FHfFH/kGfbP7J/4Rf8A4nn9l/234d/tf6Aooooooooooor5f/aM0XUdf8T/ALLuj6R4s8QeBdQu/j/rX2fxT4WtvCt1rulGD9mX9o66l+w2/jXw14w8MyfboIZdOuv7S8O6jts7y4ks/seoLa31t9H6TZXOmaVpmnXerahr13YafZWV1rurR6VBqutXNrbRwT6tqcOhaZouiRahqUkbXl5Ho+j6TpUdxNKun6bY2iw2sWjRRRRRRRRXy/8AEv4zWfin7X8Hv2fPin8P7n45614gn8H3d1plzoXxFn+CVnpf2+48dePfH3gnS9bXUNN/4RfT9I1Dw34bh8Q2iaFc/GTXfh34O8VrbaX4gvpob+kftER6r4N+FWq6d8N/GHiT4g/EnwfqPiq7+E3g3UfBr+IfBknhCTw7o/xT0rX9a+IniX4Y+G7fUPhf478UaP8AD7xRo15qOm+Mo/E1zNbr4QVdF8Uf8I/gaJ8IPGUvgG++IUcGn+E/2oPEWoeJPinb32o38baV4e8ZeJ9F0PTdL+DfjO+8OLqem+KPhhong3wd8Nvg/wCPpvD+mwR+OLf4eaX8YdDstB+Ltp4b8YaD7/4A8a6V8RPBvh7xpotvqFhZ69p6XM2jazFbWviHw1qsMklnrvhLxVp1rdXsej+MPCOt22oeGPGGgvdzXGgeJtJ1XRrxhd2E6r2NFFFFFFFeffFXxz/wrL4ceNPHUWl/2/qHhvw/qF9oHhZL7+zrzxl4qeI23hLwLpFwtnqEzeIPHPia40nwn4ds7PTdU1LUNe1rT9P03S9S1C6trG44/wCE3wf1rwBqut+L/GfxW8X/ABc+IPirwf4A8JeJPEfiPRPAPhfSktvANz4z1S0Xwx4a8B+EvDkej6fea38QPFF+bXW9S8WapBbz6fYSa9eLYfaLn3Giiiiiiiiiiivl/wDaM0XUdf8AE/7Luj6R4s8QeBdQu/j/AK19n8U+Frbwrda7pRg/Zl/aOupfsNv418NeMPDMn26CGXTrr+0vDuo7bO8uJLP7HqC2t9bfR+k2VzpmlaZp13q2oa9d2Gn2Vlda7q0elQarrVza20cE+ranDoWmaLokWoalJG15eR6Po+k6VHcTSrp+m2NosNrFo0UUUUUUV8//ABZ/4r/xV4Q+Bdp++0jWPL8f/GLy/wB5Bb/Czw1qMX9l+CtV8v7ZbRf8Lp8bQ2Phe68OeKdJl8O/Eb4N+Gv2hdEt7yDVtHhx7fpOkaV4f0rTNC0HTNP0TRNE0+y0nRtG0myttN0vSdK062js9P0zTNPs44bOw0+xtIYbWzs7SGK3tbaKOGGNI1VR5f8ADj4OaD8NfFPxO8UaXN5k3xC8QLqNrB5d5F/wjuhSaj4g8a33hzzbjU75NW+2fFz4i/GL4kf2vJb2V3b/APCyP+EQhj/4Rnwf4XtbL2Gvn74Ef8SnUfj34FtudI8B/tAeLP7IuJvm1G4/4Wz4V8D/ALRfiP8AtKVPKtpvsfjb40+KdL0X7LZ2f2fwrYaBY339pata6hrmq/QNFFFFFFFfP3xwH27xF+zj4Suv3nh/xb8f9N/4SDTv9X/aH/Cu/hZ8V/jX4O/0qLZe2n9j/E34X+BfEv8AoNzbf2h/Yf8AY+qfbvD+p6xpWo/QNFFFFFFFFFFFFfL/AO0ZbeKrrxP+y7beCdZ8P+HvEz/tAa1/Zmr+KfDOo+L9Cs9v7Mv7R0l79u8OaT4s8D6hqP2jT1u7a18jxRpf2S8mt76b7dDayafefR+kx6rBpWmQ67eafqGtxafZR6xqGk6Zc6LpV9qsdvGuoXmmaNeatr13pOn3N2s09npl1rutXFjbyR2s2ralLE15Po0UUUUV8v8Aj74xa74S+PvgrwtbQ7vhxpvh/wAOad8WJ7iSzt/7K139oHxpeeCv2e/EejRQ6Zqmu695Pj34YeKfhv4m0i2uNBs9L/4W74U8YX0msaN4e8QXXhM8U/Er/hdOhX3gT4DXfiDXNP8AFX2XQNe+Ovg+f+yfh/4K8K6reW9r4t1vwH8Tmv7GHxh8QIfDMfi/S/AepfCKz+J+neBPi/pei2PxZh8KafFdLN6/4F+E/wALPhd/an/Cs/hp8P8A4df239h/tv8A4QXwb4d8I/2v/Zn2z+zf7U/sDTdP/tD7B/aF/wDYftXnfZft159n8v7TN5noNFFfP3gsf2R+0d8d/D+n/wCjaRrHw/8AgN8UdRs/9Z9o8d+Jrr4v/DTW9d8+bzLmH7b4J+C/w00X+zIJotHt/wDhGv7StdPt9X1nxBqGq/QNFFFFFFFfP3xL/wCJz8av2a/C1oPLv/D3iD4nfGu8luPks5PCvhD4Y638HNT0+1ki82Z/EE/if9onwVf2NrLbw6bJoOl+Kbq41a21Cy0nTNb+gaKKKKKKKKKKKK+X/wBoy28VXXif9l228E6z4f8AD3iZ/wBoDWv7M1fxT4Z1HxfoVnt/Zl/aOkvft3hzSfFngfUNR+0aet3bWvkeKNL+yXk1vfTfbobWTT7z6P0mPVYNK0yHXbzT9Q1uLT7KPWNQ0nTLnRdKvtVjt411C80zRrzVteu9J0+5u1mns9Mutd1q4sbeSO1m1bUpYmvJ9Giiiiivm74WaRpXjfWv2lvEGt6Zp/ijwp45+KGofD3SpdesrbU7bWvAPw58A+Ffhj4v8D3OnarHJcx+D9F+NGnfHSxXw1qVnDot/qms+LfFWlWN7pfjY63rn0jRRRRXz/rQ+w/tT/DT7H/on/CRfAD44f8ACQ/Zv9H/ALd/4Qz4i/s9f8Id/bPlbP7U/wCET/4T3x1/wjP23z/7C/4TTxb/AGX9l/4SPWPtn0BRRRRRRXxf8MPH3jL7d8I/ibqHiDUNb8Kftf8AjC/utE8B6k8Ysfhb4euPhH4x+JPwn1XwrN5c97pGoal8LvhhpVh8Z/AdxqfiXwzffFzxRq/jP4feIPDOl6frOmfEL1HxH/ydP8G/+yAftLf+rF/ZOr3+iiiiiiiiiiiivl/9oy48VWXif9l248FaN4f1/wATR/H/AFr+zNI8U+JdR8HaFd7/ANmX9o1L37d4i0nwn451DTvs+ntd3Vr9n8Lap9svIbexm+xQ3Uuo2nf+FtZ+Pl1rtjbeNPhp8H/D3hh/tX9pat4W+OHjPxdrtnts7iSz+w+HNV/Z78D6dqP2jUFtLa68/wAU6X9js57i+i+2zW0en3nsNFfL/wAfINYuPFXw9t9R034wax8Mp/D/AMQYdR0f4Ka1468NeKdV+Lsuo/DxPhPpuoeI/hpr/hPxBoHh++8Pt8WLa61vxj4p8NfBPStSl0q++JXiDR76DwbqFvz9rrXxk+Jv7FXw51jwfN/bPxd+KXwf+C51fWE1+D4c3kP/AAsaw8GW3xM8ZaR4l0bTZoPBXiDQfDOu+KvFnhzVtG8M67/YOvadp9zpXgjxU9tb+E9U7/8AZ7mitNH8eeEZ9L8QaP4m8A/EBvDnjOx1j4xfEb466cmu6n4E8C+ONPfwn8QfirLB4wvfD8ng/wAYeFmuNOudB8LWel+KT4ltbHR7yEf8JN4g6DwJ8S/t+hfEu98f3fh/wrf/AAo+IHxG0DxnI8/9l6F4b8K6ReSeMfAWtavrGo39zpaf2n8DfEHw78deItSh1Q6bpt5ruo2eoQ6BqGm6p4f0XP8A2btJ1XSvgl4Bu/EOmahoXivxnp+ofFXxvoGp2Vzplz4d8ffGLXNU+K3j7w7Hpd9HFqWkafoHjLxlrmj6TpOrvda1pelWVnp+tahqmq215qV17jRRRRXz/wDHD/iXeIv2cfFd2PI8P+Efj/pv/CQX/wDrP7P/AOFifCz4r/BTwd/osW+9uv7Y+JvxQ8DeGv8AQba5+wf25/bOqfYfD+maxq2n/QFFFFFFfP3xzH/CZ/8ACLfAK25/4XF/bf8Awnn8H2T4E+E/7I/4W19/7J53/Caf8JH4T+Cv/El1nS/GPh3/AIW5/wALG8NfaP8AhAtS+zr+0T/xLvDnw48WWf7jxB4R+P8A8A/+Eev/APWf2d/wsT4p+Gvgp4x/0WXfZXf9sfDL4oeOvDX+m21z/Z/9uf2zpf2LxBpuj6tp6+I/+Tp/g3/2QD9pb/1Yv7J1e/0UUUUUUUUUUUV8v/tGXHiqy8T/ALLtx4K0bw/r/iaP4/61/ZmkeKfEuo+DtCu9/wCzL+0al79u8RaT4T8c6hp32fT2u7q1+z+FtU+2XkNvYzfYobqXUbT6P0iTVJdK0ybXLLT9N1uTT7OTWNO0nU7nWtKsNVkto21Cy0zWLvSdAu9W0+1uzNBZ6ldaFotxf28cV1NpOmyytZw6NFefeOfhj4Q+In9lyeIofEFrqGifbk0rXfB3jbxt8OPFVlZ6p9kbVtIi8W/DzxD4W8Tnw/rE+m6Reax4dfVn0HVtS0Lw9qWoafdah4f0W6sS++FvgS+0K48LS6F9m8MSeH/C3hmx8OaVqesaHoXhvTvBN5daj4PufBGkaNqFhp/gLxB4Z1C4t77Q/Fngm30DxVpt5onhS6tdajm8G+E5NG0PBPgPwz8PdKuNH8MWmoRxXuoS6tquo65r/iDxd4m13VZba0sRqfiTxf4v1XXPFfiTULfStP0vQ7G817WtRudP8PaPonh6wkttE0XSrCz+YP2kPAHjI23j608B+HtQ1rw1+0r4Q0/4GfE+DRUjuLnwF4h8Y6rpfw20P4/L4bhk01dZ0/w18PvF3iiH4sXYn1PxNrml/Dr4HaHHP4T8CeGPFvjLw79oUUUUUV8//tRf6D8CfHPiv7//AAqv/hGfjp/Z/wDq/wC3f+FBeMfD/wAa/wDhF/tXzf2X/wAJZ/wgX/CNf239m1H+wv7W/tn+x9Y+wf2VeeX6X8XfEPin9orwD4h0ibUF/Z91vT/GnwP8GTfYPE2jyfEb4uat4X0745t8VNLg1NrXwv40+CFh8N/hlrXhT4d/EvQ1ur7UPGWseLo/D0Ot+Adft/FifaFFFFFfP1tjW/2ptZ+1/uv+FV/ADwz/AMI99m/d/a/+F/fEXxZ/wmP9s+b532j+zf8AhmvwN/wjP2H+zvsf9reLP7U/tn7fo/8AYR+0+PsXwV8ReKJB/wAS/wCGPiD4bfGvXoE5vLvwr8DPid4O+MXi3T9IjbZDP4g1Hwz4H1ax8O2l5cWGm3mvXOnW2p6tpOnzXWqWq6J/pf7U3xL+1/6T/wAI38APgf8A8I8Ln99/YP8AwmnxF/aF/wCEx/sbzd/9l/8ACWf8IF4G/wCEm+w+R/b3/CF+E/7U+1f8I5o/2P6Aoooooooooooor5f/AGjdZ1Hw74n/AGXdX0nwn4g8b6hZ/tAa19n8LeFrnwrZ67qf2j9mb9o22l+w3HjXxL4P8MR/YoJ5NRuf7S8Radvs7S4js/tmoPa2N19H6TeXN/pWmX93pOoaBd3+n2d5daFq0mlTarotzdW0c8+k6nNoWp6zokuoabK7Wd5Jo+satpclxDI2n6nf2jQ3UujRRRRRRRRRRRRXz98ff+JP/wAKV8e/68fD74//AA5/4lP+p/tb/hcH9s/s0f8AH9+8+wf8I9/wvH/hNf8AjzvP7W/4Rf8A4Rv/AIlf9t/29pH0DRRRRXz98O/+J78dv2ivFg/0T/hHP+FRfAz+zv8AXfbP+EL8HX3xr/4Sn7V+5+zf2l/w0p/wjX9ifZpvsf8Awhf9s/2xdf8ACR/2VoTv2sf+TWP2lv8AsgHxk/8AVdeI6b4D/wCJz+0F+0B4otB5en+HvD/wV+Cl5Bcfu7yTxV4Q0zxt8Y9T1C1ji86B/D9x4Z/aJ8FWNjdS3EOpSa9pfii2uNJttPstJ1TW/oGiiiiiiiiiiiivl/8AaN1nUfDvif8AZd1fSfCfiDxvqFn+0BrX2fwt4WufCtnrup/aP2Zv2jbaX7DceNfEvg/wxH9ignk1G5/tLxFp2+ztLiOz+2ag9rY3X0fpN5c3+laZf3ek6hoF3f6fZ3l1oWrSaVNqui3N1bRzz6Tqc2hanrOiS6hpsrtZ3kmj6xq2lyXEMjafqd/aNDdS6NFFFFFFFFFFFFePfH3wtrvi/wCDXxC0nwhY/b/Hln4fm8U/DG3+1Wdl5fxY8DzweNfhTfebqdxa6M39mfEbw/4Y1P7N4gkbw3ffZPsfiS3vNCuNQtZz4afErXfFuu+N/CfjPwR/wrnxZ4V/4RrxBZeG38S2fiu8vvhx45s78+D/ABPq+oaNYReH9G8QT+IPDfj7wf4i8IaXrPieLRNe8Dajfab4k8R+Etb8J+KNe9Q1PVtK0O2jvNY1PT9Is5dQ0nSYbrU7y2sLaTVdf1Wz0LQtMjnupIY31DW9b1LT9G0mzRzcalqt/Z6fZxzXl1DFIatq2laBpWp67rupafomiaLp97q2saxq15babpWk6Vp1tJeahqep6heSQ2dhp9haQzXd5e3U0Vva28Uk00kcaMw0aK+f/gd/p3iL9o3xXZfvPD/iz4/6l/wj1/8A6v8AtD/hXfws+FHwU8Y/6LLsvbT+x/ib8L/HXhr/AE22tv7Q/sP+2dL+3eH9T0fVtR+gK+X/ANjD4Oa78Af2YPhB8K/FE2/xN4f8P3uo+I7fy7NP7I17xh4g1jxrq/hzzdO1TWNPvv8AhGNQ8RXHh3+17DUJrPWv7L/te1S2gvo7WD6goooooooooooor5f/AGjPEuneDvE/7LviLVrbxBdafpvx/wBa8+38LeE/FXjfXX+1/sy/tHWEX2Dwt4K0bxB4n1PZPdRvdf2ZpF39is1uNSvPs+n2t1dQ/R+kanbazpWmaxZR6hDaarp9lqdrDq2k6r4f1WG2v7eO6gj1LQtdstN1vRNQSKVUvNJ1jT7DVdOuRJZ6hZ2t5DNCmjRRRRRRRRRRRRRXz98Q/wDilvjT8BPFOk/uNQ+IXiDxT8FfFkI/dWes+FY/hj8SPjHoOoX8dt9nm1DxB4M8T/DSSx8F3Wp3F7p3h3QfiR8VbWz0r+0PGDapY+YfHLwTqv7QfiXx78PNCuNPtZPg78ML7XPAet3UtwulaN+1H8SvD3i7SPh14kl8Q6NaTar4P8YfAPwpBD4vt7G1Gt6mtt8d/BXxCg0XR9c8JfD/AFrVeg+LPjXSvif+zH4S8TaRb6hbeDfjxqH7N+h6lpOrRW1rqt38L/2gvil8MPCPjDw3qX2C7vV0vUNa+H3jrWtBvL7Q9U/tDRri9kvvDutW2pWdhqsPX6f/AMWS8XeBPAWnf6T8L/iZ4g1Lwn4A0FPlvPhV4p0vwT4u+IUnhrSC+2Cf4Qaj4Z8D+JH8O6MZk1L4V67b6f4P8M2+sfDDxB4e0L4K5/7SWmW3i/SvhR8KLuTULC0+K3xv8C6Zda3pOraromq6HbfC62139o2eTTL7Qr3SdbtNQ16L4Jt4Ns9W0fXNE1XwvceJo/F+n3lzeeH4dI1P1D4Y/DfQvhN4Rh8E+GrzxBf6RB4g8beI4rrxTrd54l11rzx3428Q+PNWS+8Qam0mrax5Gr+Jb63tdQ1u61LXrqzit5dc1jWNWa81S89Boooooooooooooor5f/aM8S6d4O8T/su+ItWtvEF1p+m/H/WvPt/C3hPxV4311/tf7Mv7R1hF9g8LeCtG8QeJ9T2T3Ub3X9maRd/YrNbjUrz7Pp9rdXUPf+Fvjf4L8Xa7Y+HNI0X4wWmoah9q+z3Hin9nv4++BtCj+yWdxfS/bvFPjX4aeH/DGl74LaRLX+0tXtPt141vp9n9o1C8tbWf2Givn74u/ELxV4e8VeGPBXhbxJ8P/AH9oeAPil8VPEXxD+Jeg6j4o8K+H/Cvwp1H4baTq9jd6Lp3jv4ZfYvtv/CzbfXLjxbf+Mk03w/pvha/tbrQdR/tyPVdAz7j43arqP7Onw1+Mmg6Hp+ka38WNP8AgDHo2k6tcXOuaV4S1X9oDxR4A8Iafean9jHh678U6f4Ju/H0Or3mmWlx4UuPFlvo0ulw6t4Vk1RdV03sPhJ4x8U+IJfiV4X8ayeH7/xN8K/H9v4F1LxD4W0fUfDOheJv7T+HHw9+J9nqlj4V1fxD4v1Dw39i0/4jWnhy6sbjxf4k+33mg3HiCK80+HWo/D+jew0UUUUUUUV8/ftOf6J8IrvXpv3ekeA/iB8FPij4qu+v9leBPhP8bPh78TPiBrv2dM3N9/YHgnwpr+t/2ZpsN5rGqfYP7N0XT9S1a6s7G5PgR/xM9R+Pnjm3/d6R46/aA8Wf2RbzfJqNt/wqbwr4H/Z08R/2lCnmW0P23xt8F/FOq6L9mvLz7R4Vv/D99ff2bq93qOh6V4Bof/Ej+NPwh/Zxi+fXfg/8X/iP8d9AsU/0azi/Zg8YfDH42eFvCWqaRarv0bw94f8Ahr8Rvi1pP7Ofh3wBZ6tN4gj0LwJp/jDTfC2h+A762t9F+gP2if8AiXeHPhx4ss/3HiDwj8f/AIB/8I9f/wCs/s7/AIWJ8U/DXwU8Y/6LLvsrv+2Phl8UPHXhr/Tba5/s/wDtz+2dL+xeINN0fVtPTxmP7T/aO+BHh++/faRo3w/+PPxS020/1P2bx34auvhB8NNF13z4fKuZfsfgn40/EvRf7Mnmk0e4/wCEl/tK80+41fR/D+oaV9A0UUUUUUUUUUUUUUV8v/tGeK/CvgTxP+y74o8aeJfD/g7wxpfx/wBa/tLxF4o1nTvDuhad9u/Zl/aN06z+3avq1zZ6dZ/bNQu7WxtfPuI/tF5dW9rFummjjf6P0jVtK17StM13QtT0/WdE1rT7PVtG1jSby21HStV0rUbaO80/U9M1CzkmtL7T7+0mhu7O8tJpba6tpY5oZJI3Vm0aK8e+LPw513x5/wAIhdeH9W+H9lf+DvEEfiTTbL4ofCmz+K/hW31208qTRfF+k6ZD4n8B+JvDvxA8KzwzReFfE+ieNrOysdO17xPBqXh/WNQvNA1bwxz9x8C/I+E/hn4O6H4o+xeGPhzoHwRtvhxfaron9ra7Y+KvgX4l0fxT4a1nxtc2mr6Jp/izQNX1Dwd4Hh1zw1oOmeBNSks7PxXHp/iyxm8S6PceD+w+GPgDVPBMfjTU/EniCw8TeMfiL4wj8a+L9S0Lw/c+EvDP9q2fg3wf8PdNt/DXhm/8ReMNV0fT4vCngPw4b6LVPF/iO4vfEL63qtvdafpuoWOgaP6jRRRRRRRRXn3xY8C/8LP+FnxL+GY1T+wv+FifD/xl4F/tv7D/AGl/Y/8Awlvh3UtA/tT+zften/2h/Z/9ofa/sP2+y+1eT9n+2W3mecnH/s3aTqulfBLwDd+IdM1DQvFfjPT9Q+KvjfQNTsrnTLnw74++MWuap8VvH3h2PS76OLUtI0/QPGXjLXNH0nSdXe61rS9KsrPT9a1DVNVtrzUrr1C58LaFc+KtG8a3Fjv8TeHvD/iXwtpGp/aryP7HoXjDUfCereI7H7FHcJp8/wDaOoeBvC1x9pubWa8tP7L8qxuLWG+1GO88f/amH2L9n34oeKIudQ+GPh+P41aBC/NndeKvgXqdh8Y/CWn6vGuyafw/qPibwPpNh4itbO4sNSvNBuNRtdN1bSdQmttUtTwWP7T/AGjvjvr+nYm0jRvh/wDAb4W6jdf6n7N478NXXxf+Jmt6F9nm8q5m+xeCfjT8NNb/ALUghl0e5/4SX+zbTULjV9H8QWOlfQNFFFFFFFFFFFFFFFfL/wC0Z4r8K+BPE/7Lvijxp4l8P+DvDGl/H/Wv7S8ReKNZ07w7oWnfbv2Zf2jdOs/t2r6tc2enWf2zULu1sbXz7iP7ReXVvaxbppo43+j9I1bSte0rTNd0LU9P1nRNa0+z1bRtY0m8ttR0rVdK1G2jvNP1PTNQs5JrS+0+/tJobuzvLSaW2uraWOaGSSN1ZtGiiiiiiiiiiiiiiiivPvix4F/4Wf8ACz4l/DMap/YX/CxPh/4y8C/239h/tL+x/wDhLfDupaB/an9m/a9P/tD+z/7Q+1/Yft9l9q8n7P8AbLbzPOTyD9kLUNd8XfBqy+MPi3w5/wAIv4v+PfiDXvjHrGmf2vZ615eheIp4tJ+E0P2zTEtdLf8Asz4GeH/hdoPmWumaNeX39k/2p4m0uHxhf+IpZ/qCiiiiiiiiiiiiiiivAPjJ/wAlF/ZO/wCzgPEf/rLP7S1e/wBFFFFFFFFFFFFFFFFFFZ2k6RpXh/StM0LQdM0/RNE0TT7LSdG0bSbK203S9J0rTraOz0/TNM0+zjhs7DT7G0hhtbOztIYre1too4YY0jVVGjRRRRRRRRRRRRRRRXy/+0Z4T8K+OPE/7Lnhbxp4Z8P+LvDGqfH/AFr+0vDninRtO1/QtR+xfsy/tHajZ/btI1a2u9Pu/smoWlpfWvn28nkXltb3UW2aGORfo/SdI0rw/pWmaFoOmafomiaJp9lpOjaNpNlbabpek6Vp1tHZ6fpmmafZxw2dhp9jaQw2tnZ2kMVva20UcMMaRqqjRoooorw7Vv2m/wBm3w/qmp6Frn7QfwQ0TW9E1C90nWNG1b4seA9N1XSdU065ks9Q0zU9PvNfhvLDULC7hmtbyzuoYri1uIpYZo45EZRR/wCGsf2WP+jlvgB/4eT4df8AzR0f8NY/ssf9HLfAD/w8nw6/+aOj/hrH9lj/AKOW+AH/AIeT4df/ADR0f8NY/ssf9HLfAD/w8nw6/wDmjo/4ax/ZY/6OW+AH/h5Ph1/80dH/AA1j+yx/0ct8AP8Aw8nw6/8Amjo/4ax/ZY/6OW+AH/h5Ph1/80dH/DWP7LH/AEct8AP/AA8nw6/+aOj/AIax/ZY/6OW+AH/h5Ph1/wDNHR/w1j+yx/0ct8AP/DyfDr/5o6P+Gsf2WP8Ao5b4Af8Ah5Ph1/8ANHR/w1j+yx/0ct8AP/DyfDr/AOaOj/hrH9lj/o5b4Af+Hk+HX/zR0f8ADWP7LH/Ry3wA/wDDyfDr/wCaOj/hrH9lj/o5b4Af+Hk+HX/zR0f8NY/ssf8ARy3wA/8ADyfDr/5o6P8AhrH9lj/o5b4Af+Hk+HX/AM0dH/DWP7LH/Ry3wA/8PJ8Ov/mjo/4ax/ZY/wCjlvgB/wCHk+HX/wA0dH/DWP7LH/Ry3wA/8PJ8Ov8A5o6P+Gsf2WP+jlvgB/4eT4df/NHR/wANY/ssf9HLfAD/AMPJ8Ov/AJo6P+Gsf2WP+jlvgB/4eT4df/NHR/w1j+yx/wBHLfAD/wAPJ8Ov/mjo/wCGsf2WP+jlvgB/4eT4df8AzR0f8NY/ssf9HLfAD/w8nw6/+aOj/hrH9lj/AKOW+AH/AIeT4df/ADR0f8NY/ssf9HLfAD/w8nw6/wDmjo/4ax/ZY/6OW+AH/h5Ph1/80dcd4+0z4aftQn4IXPheT4X/AB4+Fvg744atqfxFSy1bwR8QvBtlbW/wG+L2j2MerWbXmp6VqWoWXivxp4Emj0mKC91Sxk1TTdcazhsbaXULf6f0nSNK8P6VpmhaDpmn6JomiafZaTo2jaTZW2m6XpOladbR2en6Zpmn2ccNnYafY2kMNrZ2dpDFb2ttFHDDGkaqo0aKKKK8A/aW/wCSdeHP+zgP2Tv/AFqf4N17dJqulW+q2WhS6np8Otajp+p6tp2jSXltFql9pWi3Ok2esanZae0i3dzp+k3ev6FaaleQQvbWNxrWkQ3UkUmpWiz+f/ETw3pWpa18IvFeseJ9P8L2nw0+KEfiSFdTFtFbeINV8X+AfH3wX0LwxHfXWoWEVhqGq638VdPbSSkeo3OrapbWfh2z09rzWobq19Rry7VvBOqXvxn8AfEaG409ND8KfC/4veCtQtZJbldVm1Xx/wCK/gjruj3FlAto1nJp9tafDXXYtSlnvra4hubvSVtbW9jnvJrH1GvLtJ8E6rp/xo8f/EWS409tE8VfC/4Q+CtOtYpbk6rBqvgHxX8btd1i4vIGtEs4tPubT4laFFpssF9cXE1xaast1a2ccFnNf+o18X/HLwVqvhT4Cf8ABQTXdQuNPktPiT4P+J3jXQo7KW5kubTSrH9lPwL8OZrfVkntLaK31B9b8AaxdxxWc1/btpdzpszXS3k11Y2f1/JqulW+q2WhS6np8Otajp+p6tp2jSXltFql9pWi3Ok2esanZae0i3dzp+k3ev6FaaleQQvbWNxrWkQ3UkUmpWiz8f8ACfwL/wAKu+Fnw0+GY1T+2/8AhXXw/wDBvgX+2/sP9mf2x/wiXh3TdA/tT+zfteof2f8A2j/Z/wBr+w/b737L53kfbLnZ50h8WPAv/Cz/AIWfEv4ZjVP7C/4WJ8P/ABl4F/tv7D/aX9j/APCW+HdS0D+1P7N+16f/AGh/Z/8AaH2v7D9vsvtXk/Z/tlt5nnJ6DXl3xX8N6V4x0Xwv4U1DxPp/ha7vvih8K/EmhG8FtNc6/qvwp8faB8aJvDGk2M+oafJe6hq+ifDjWFlNnJc3GlaXDqfiJ9Pv7TRru1l9Rry7x94K1XxT4r+CGuadPp9vafDT4oat411yO8luY7m60rUPgv8AF74cw2+kpBaXEc+oDW/H+j3UkV5NYW66XbanOt215Da2N56jXzfZatpWgftI/HfXdc1PT9E0TRf2cP2dtW1jWNWvLfTdK0jStO8efta3moanqeoXckNnYafY2kM11eXt1NFb2tvFLNNJHGrMPX/BXxC8A/EnSp9c+HPjjwh4+0S01CXSbrWPBXiXRfFOlW2qwW1reT6ZcahoV7f2cOoQ2l/Y3U1nJMtxHb3lrM0YjuYmfP8ABvgX/hEPEXxY1/8AtT7cPif8QNN8dfZPsP2T+wv7P+Fnw0+Gn9l+f9ruf7S87/hXf9t/bvJ0/wAv+2P7O+ySf2f/AGhfdhJqulW+q2WhS6np8Otajp+p6tp2jSXltFql9pWi3Ok2esanZae0i3dzp+k3ev6FaaleQQvbWNxrWkQ3UkUmpWiz8f8ADTwL/wAK68OaloA1T+1hqHxA+LHjr7X9h/s/yf8AhaHxT8ZfEz+y/I+13u/+w/8AhLf7F+2+cn9pfYP7S+yaf9q+w2/oNeXfBTw3pXgf4SfDj4f6N4n0/wAY2fw08H6J8L5vEmmC2ittS1X4Z2MXgPXWktLXUNVj0vULXW/D2oWOraK+pXlxoeq295o95cPeWU1aHxY8C/8ACz/hZ8S/hmNU/sL/AIWJ8P8Axl4F/tv7D/aX9j/8Jb4d1LQP7U/s37Xp/wDaH9n/ANofa/sP2+y+1eT9n+2W3mecnoNeXePvBWq+KfFfwQ1zTp9Pt7T4afFDVvGuuR3ktzHc3Wlah8F/i98OYbfSUgtLiOfUBrfj/R7qSK8msLddLttTnW7a8htbG89Rry7VvBOqXvxn8AfEaG409ND8KfC/4veCtQtZJbldVm1Xx/4r+COu6PcWUC2jWcmn21p8Nddi1KWe+triG5u9JW1tb2Oe8msfUaKKKKKKK8A/aW/5J14c/wCzgP2Tv/Wp/g3Xy98U/iV/wuD+2vFPwQu/EFz428N/sQ/taWWpeG/C8/m/FP4R/FPxp/wobUfAnw/8Z6R4Rv8AU9X8BfGB9X8J+JrDS/Ck9xB4ibxF4L8TWujrdXXh3UJLdfiD8V/CvxO8cePP+Ff/ABL8P/ELwToXiD/gmj5H/CHeMtO8WeFdH8Van+214s/t/wAr+xNSv9I0/wAQahpGn+FP7Y2eTqN1ptl4e+2eZa22m7PX/wBn1/iPf+NfEHh/xjq/iCfSP2fPD998GLK5vPEUuo3njfXdV8X3uvab4n+J7SajfR+K/iAP2fNA/Zw8eW3i2xtdKs7XXfjb8V9Lkjj1a51bwj4D+wKKKK8A/ax/5NY/aW/7IB8ZP/VdeI6+TvH174+uPif4x/af0vwz4Pu/hb8Gvih4O0p/Gd1441rTtVtfhf8AAvT/AIo/Dj49+IJfhRH8PdRu/EuoeBrv44/tPW9vdQfErwjqGuXHgDwVqHhXwH4usdPt4fjH2Hhn4sf8V38FfhbqHxLx8TP+Gv8A9p//AIS74c3njLHjsfCz+x/2vPEXw6/4SPwjNqX9v/8ACv8A/hH/APhV2u+Cv7T07/hHf7H/AOEB1PQ/9B/4R2avANM8a+Ndb8K3Nl4L+J3xg8TfFzXP2Af2jvFHxL8Fab4h8X61/wAIn+1XBp3wJiv7HQLS3hln8FfF/QfE2u6ppM3wW8M6lYL8GftOiR+F/ht8OW8fXdx419/8TfGHQfiD4l/aKuvhl8c/D+o+CPDPwg/Zlmude8I+OrzV/BOh3mofFj48N8Q9L1Lxb8PX8Q3Pwk/4THwTp+j+HvHXxj0azXXvhD4RuNP+LFxJHa+BdPurfgNN1Lwh4huv2UNd1XxZ4gh0bw9+1/rXhbw5rlv+0b41+JHwz1m81v8AZx+I+saRY/Dv4x6jP4R1z40+H9T8exaX4QkufiHa63r2n/EK++K/wB0W4uPhzLJ4W1P9P6KK+D/jNFpX/C0vjpd6veahpNponww/YV8UQ69Z6Zbatp/hXVfCn7Tfx78T6F4y8ZWFzq3h+N/hf4N1vSdP8VfFyZPEHh64svhfpHi++s9e0S8t4dUteA1/4leIdZ8KfG/xj4N8XfC/4oa3baf+zH4d1749fBzV/E3w9+Gl58PLj40eKLf4hfDnWvEemeNvjYvw01D4UfD3xB428c/ED4ueFdfj8W+BvBHxY0TxjJougSeDfDXiDVOfTxrfw+C/hdN4i+MWoaJ8J9a/av1fQF8T/CT4y/FD4s6VZ/CNf2WPiBrPiLQNQ/aI8V+C9C8U+NvB/wDwsjTPEuueMviXb3WoWPwVtzfw6X8TPh/rHwYj1L4dc/rms+IbfUPBPjzQPFPjC/8AijH+zh/wUf0z9nFz4v8AE2v3Pj228BfFDws37PMnhvwpfarqGj/GbUNb+E72HizT9W1TRPGeq/FzS9J8MfEXxPeeM77wx4b8RaZ0GjeJvFupeA/HqeCPizp9l4Uu/ih+xv4b8Pa78If2jfiH+1Dc+F/E3i39pHRPDnxKuoPjT8XPAUOmvqGt+DdS8Haff/B57zxl4e0PS7ZNZ8VeDrHS/imw8YegXMHiHwdqnxG1DR/iJ8T5rP4Q/tX/ALN3wh+Huha58QPE3iPStL8G/Fy5/Zfn+JsHiSXXr/UNb+KWoeKYvjP4ws7G/wDi7rHj6T4e2yaI3wnTwFeaYLqfnvgd4gtrP4l6BpHhfx34w1DxjqP7V/7X2m/Eb4d3mq6rHougfBJPG/7Tmu2PiHSfh+9rYaDN4Pm+MNh4Et5PjtFpWs64vj7WtT+DTfE2HTYpPhnpPkHhL4jfFa5+C/xo8RXPj/T7Hxjpn7GPxh8T/FjTPDfx8+KvxO8feGPjzbeFPD9/ouq+J/B+seCNE8Kfsf8AjDwzqv8AwsqAfCbwX4l8Ptca1cahpeh+HdX034Of2h4U/W7wt4f/AOEX0Kx0Q614g8RT2v2qa81/xTqX9p67rGo6heXGpanqV9NFDZ6fZ/bNQu7ma10TQdN0Xwr4ds3t9A8JaB4f8M6bpWi2PQ0UUUUUUUUUV4B+0t/yTrw5/wBnAfsnf+tT/Buvf6K53w/4W0LwudaOiWP2SbxH4g1HxTr95NdXl/qOsa7qhijmvtS1LUbi71C7+yafZ6boOi201y9n4d8K6LoHhLQLfTfDOgaLpNh0VFFFeAftY/8AJrH7S3/ZAPjJ/wCq68R17/RXl3gn4PeCPAGqz65oo8YaprcthLpMOsePviZ8S/inqmlaVdXFpeajpnh7UPib4u8XXfhnT9au9O0i68QWfh6bTLbxFcaF4em1yPUJPD2iNYeo0UUUV4B4c/5On+Mn/ZAP2af/AFYv7WNe/wBc7rPhbQtf1LwlqurWP2q/8D+IbnxR4Wn+1Xlv/Zeu3fhTxP4LuL7yrW4ghvPM8M+L/EWm/ZtQju7Nf7R+2JbrqFrY3Vt0VFFFFFFFFFFFFFFFFf/Z;clipPath=inset(3.42% 27.21% 11.64% 0%);movable=1;resizable=1;rotatable=1;deletable=1;editable=1;locked=0;connectable=1;" vertex="1" parent="Hqzz6xvAw3qCz6wJWD0g-3">
          <mxGeometry width="124.25459997392551" height="107.99530659249923" as="geometry" />
        </mxCell>
        <mxCell id="Hqzz6xvAw3qCz6wJWD0g-2" value="" style="rounded=1;whiteSpace=wrap;html=1;fillColor=#dae8fc;strokeColor=#6c8ebf;opacity=40;strokeWidth=1;movable=1;resizable=1;rotatable=1;deletable=1;editable=1;locked=0;connectable=1;aspect=fixed;" vertex="1" parent="Hqzz6xvAw3qCz6wJWD0g-3">
          <mxGeometry x="61.19734040241624" y="2.0279999999999974" width="17.999217765416542" height="119.99478510277693" as="geometry" />
        </mxCell>
        <mxCell id="Hqzz6xvAw3qCz6wJWD0g-4" value="" style="points=[[0,0.5,0],[0.24,0,0],[0.5,0.28,0],[0.995,0.475,0],[0.5,0.72,0],[0.24,1,0]];verticalLabelPosition=bottom;sketch=0;html=1;verticalAlign=top;aspect=fixed;align=center;pointerEvents=1;shape=mxgraph.cisco19.key;fillColor=light-dark(#f5d847, #332500);strokeColor=light-dark(#db3933, #d0635f);strokeWidth=2;perimeterSpacing=0;" vertex="1" parent="Hqzz6xvAw3qCz6wJWD0g-3">
          <mxGeometry x="100" y="47.02999999999997" width="66.67" height="30" as="geometry" />
        </mxCell>
      </root>
    </mxGraphModel>
  </diagram>
</mxfile>
